<svg width="74" height="80" viewBox="0 0 74 80" fill="none" xmlns="http://www.w3.org/2000/svg">
<g filter="url(#filter0_d_165_356)">
<path d="M37.035 37.6891C36.2914 37.6891 35.5943 37.5725 34.9437 37.3394C34.2931 37.1099 33.689 36.7175 33.1313 36.1624L7.47852 10.624C6.45613 9.60619 5.92262 8.33298 5.87801 6.80438C5.82968 5.27948 6.36318 3.96185 7.47852 2.85149C8.50091 1.83365 9.80214 1.32474 11.3822 1.32474C12.9623 1.32474 14.2635 1.83365 15.2859 2.85149L37.035 24.3648L58.784 2.85149C59.8064 1.83365 61.0835 1.30068 62.6152 1.25256C64.1507 1.20815 65.4761 1.74112 66.5914 2.85149C67.6138 3.86932 68.125 5.16474 68.125 6.73775C68.125 8.31077 67.6138 9.60619 66.5914 10.624L40.9386 36.1624C40.381 36.7175 39.7768 37.1099 39.1262 37.3394C38.4756 37.5725 37.7785 37.6891 37.035 37.6891ZM37.035 71C36.2914 71 35.5943 70.8834 34.9437 70.6502C34.2931 70.4208 33.689 70.0284 33.1313 69.4732L7.47852 43.9349C6.45613 42.9171 5.92262 41.6439 5.87801 40.1153C5.82968 38.5904 6.36318 37.2727 7.47852 36.1624C8.50091 35.1445 9.80214 34.6356 11.3822 34.6356C12.9623 34.6356 14.2635 35.1445 15.2859 36.1624L37.035 57.6756L58.784 36.1624C59.8064 35.1445 61.0835 34.6116 62.6152 34.5634C64.1507 34.519 65.4761 35.052 66.5914 36.1624C67.6138 37.1802 68.125 38.4756 68.125 40.0486C68.125 41.6217 67.6138 42.9171 66.5914 43.9349L40.9386 69.4732C40.381 70.0284 39.7768 70.4208 39.1262 70.6502C38.4756 70.8834 37.7785 71 37.035 71Z" fill="#BF8579"/>
</g>
<defs>
<filter id="filter0_d_165_356" x="0.875" y="0.25" width="72.25" height="79.75" filterUnits="userSpaceOnUse" color-interpolation-filters="sRGB">
<feFlood flood-opacity="0" result="BackgroundImageFix"/>
<feColorMatrix in="SourceAlpha" type="matrix" values="0 0 0 0 0 0 0 0 0 0 0 0 0 0 0 0 0 0 127 0" result="hardAlpha"/>
<feOffset dy="4"/>
<feGaussianBlur stdDeviation="2.5"/>
<feComposite in2="hardAlpha" operator="out"/>
<feColorMatrix type="matrix" values="0 0 0 0 0 0 0 0 0 0 0 0 0 0 0 0 0 0 0.25 0"/>
<feBlend mode="normal" in2="BackgroundImageFix" result="effect1_dropShadow_165_356"/>
<feBlend mode="normal" in="SourceGraphic" in2="effect1_dropShadow_165_356" result="shape"/>
</filter>
</defs>
</svg>
