<svg width="208" height="132" viewBox="0 0 208 132" fill="none" xmlns="http://www.w3.org/2000/svg">
<path d="M207 46.5C207 52.597 204.241 58.4794 199.101 63.9127C193.956 69.3513 186.464 74.2945 177.131 78.4676C158.466 86.8127 132.612 92 104 92C75.3883 92 49.5335 86.8127 30.8691 78.4676C21.5357 74.2945 14.0441 69.3513 8.89929 63.9127C3.75945 58.4794 1 52.597 1 46.5C1 40.403 3.75945 34.5206 8.89929 29.0873C14.0441 23.6487 21.5357 18.7055 30.8691 14.5324C49.5335 6.18728 75.3883 1 104 1C132.612 1 158.466 6.18728 177.131 14.5324C186.464 18.7055 193.956 23.6487 199.101 29.0873C204.241 34.5206 207 40.403 207 46.5Z" stroke="#A56037" stroke-width="2"/>
<rect x="147" y="89.5" width="60.1041" height="60.1041" rx="1" transform="rotate(135 147 89.5)" fill="#EDD1CC"/>
<rect x="125.323" y="89.793" width="29.0347" height="29.0347" rx="1" transform="rotate(135 125.323 89.793)" fill="#F2E9E4"/>
<circle cx="53" cy="87" r="8" fill="#580201"/>
<circle cx="38" cy="81" r="5" fill="#D8A273"/>
<circle cx="28" cy="77" r="3" fill="#EDD1CC"/>
<circle cx="8" cy="8" r="8" transform="matrix(-1 0 0 1 164 79)" fill="#580201"/>
<circle cx="5" cy="5" r="5" transform="matrix(-1 0 0 1 176 76)" fill="#D8A273"/>
<circle cx="3" cy="3" r="3" transform="matrix(-1 0 0 1 184 74)" fill="#EDD1CC"/>
</svg>
