<svg width="190" height="162" viewBox="0 0 190 162" fill="none" xmlns="http://www.w3.org/2000/svg">
<path d="M37.4075 38.1493L73.6294 122.423L37.4075 158.858L1.18554 122.423L37.4075 38.1493Z" fill="#BF8579" stroke="white" stroke-width="2" stroke-linejoin="round"/>
<path d="M37.4074 37.9272L55.3657 118.71L37.4074 159.517L19.4491 118.71L37.4074 37.9272Z" fill="#EDD1CC" stroke="white" stroke-width="2"/>
<ellipse cx="37.4351" cy="49.9788" rx="8.63888" ry="8.61702" fill="#D8A273"/>
<rect x="34.5555" y="31.0212" width="5.75925" height="14.9362" rx="2.87963" fill="#A56037"/>
<path d="M37.4351 33.3191L37.4351 18.9574" stroke="#D8A273" stroke-linecap="round"/>
<path fill-rule="evenodd" clip-rule="evenodd" d="M38.0111 18.5134C37.8207 18.5257 37.6286 18.5319 37.4351 18.5319C32.5778 18.5319 28.6444 14.6049 28.6444 9.76596C28.6444 4.92704 32.5778 1 37.4351 1C42.0988 1 45.9106 4.62002 46.2073 9.19149H47.2092C46.9111 4.06529 42.6491 0 37.4351 0C32.0279 0 27.6444 4.37237 27.6444 9.76596C27.6444 15.1595 32.0279 19.5319 37.4351 19.5319C37.6285 19.5319 37.8205 19.5263 38.0111 19.5153V18.5134Z" fill="#D8A273"/>
<path d="M152.593 38.1493L188.814 122.423L152.593 158.858L116.371 122.423L152.593 38.1493Z" fill="#BF8579" stroke="white" stroke-width="2" stroke-linejoin="round"/>
<path d="M152.592 37.9272L170.551 118.71L152.592 159.517L134.634 118.71L152.592 37.9272Z" fill="#EDD1CC" stroke="white" stroke-width="2"/>
<ellipse cx="152.62" cy="49.9788" rx="8.63888" ry="8.61702" fill="#D8A273"/>
<rect x="149.741" y="31.0212" width="5.75926" height="14.9362" rx="2.87963" fill="#A56037"/>
<path d="M152.62 33.3191L152.62 18.9574" stroke="#D8A273" stroke-linecap="round"/>
<path fill-rule="evenodd" clip-rule="evenodd" d="M153.196 18.5134C153.006 18.5257 152.814 18.5319 152.62 18.5319C147.763 18.5319 143.829 14.6049 143.829 9.76596C143.829 4.92704 147.763 1 152.62 1C157.284 1 161.096 4.62002 161.392 9.19149H162.394C162.096 4.06529 157.834 0 152.62 0C147.213 0 142.829 4.37237 142.829 9.76596C142.829 15.1595 147.213 19.5319 152.62 19.5319C152.814 19.5319 153.006 19.5263 153.196 19.5153V18.5134Z" fill="#D8A273"/>
</svg>
