<?xml version="1.0" encoding="UTF-8"?>
<svg id="Layer_1" data-name="Layer 1" xmlns="http://www.w3.org/2000/svg" viewBox="0 0 125.92 75.79">
  <path d="M29.04,38.22l-.02.02c.08-.02.15-.03.23-.05-.08,0-.15.02-.22.03ZM29.04,38.22l-.02.02c.08-.02.15-.03.23-.05-.08,0-.15.02-.22.03ZM26.07,40.99c.02.08.02.14.03.19,0-.08.02-.17.03-.25-.02.02-.05.05-.06.06ZM29.04,38.22l-.02.02c.08-.02.15-.03.23-.05-.08,0-.15.02-.22.03Z"/>
  <path d="M29.04,38.22l-.02.02c.08-.02.15-.03.23-.05-.08,0-.15.02-.22.03ZM29.04,38.22l-.02.02c.08-.02.15-.03.23-.05-.08,0-.15.02-.22.03Z"/>
  <path d="M39.42,41.89c-.71,3.92-3.38,5.44-6.23,5.66-.22.03-.48.03-.69.03-3.15,0-5.11-1.96-5.97-5.14-.11-.45-.19-.86-.19-1.23,0-.09,0-.2.02-.29,0-.02,0-.03.02-.05v-.05s0-.09.02-.12v-.03c.2-.97.91-1.59,1.88-1.97.12-.05.25-.09.37-.12.22-.06.45-.11.69-.15,1.02-.17,2.24-.17,3.42-.17h1.51c2.22,0,4.1-.06,4.41-.88.11-.29.14-.56.14-.85,0-1.26-1-2.45-1.93-3.19-.2-.17-.42-.34-.63-.48-.11-.08-.22-.15-.32-.22-1.19-.69-2.56-1.02-3.99-1.05h-.15c-4.66,0-7.8,3.67-7.8,8.7v.08c0,.88.09,1.71.29,2.48.02.14.05.26.09.4.99,3.55,3.84,5.78,7.42,5.78h.15c4.44-.11,7.3-3.36,7.8-7.14h-.32ZM26.13,40.93c-.02.08-.03.17-.03.25-.02-.05-.02-.11-.03-.19-.11-.71-.23-2.13-.23-2.75.11-4.44,3.15-6.25,5.92-6.25,1.34,0,2.62.39,3.52,1.14.11.06.2.15.28.25.25.23.45.49.6.79.31.42.49,1.11.49,1.71-.11,2.68-3.95,1.87-6.99,2.24-.14.02-.26.03-.4.06-.08.02-.15.03-.23.05-.29.05-.57.11-.83.2-1,.35-1.93,1.08-2.07,2.5Z"/>
  <path d="M50.56,41.22c0,.37.07.78.19,1.22.85,3.18,2.81,5.15,5.96,5.15.22,0,.48,0,.7-.04,2.85-.22,5.52-1.74,6.22-5.66h.33c-.52,3.78-3.37,7.03-7.81,7.14h-.15c-4.48,0-7.81-3.48-7.81-8.66v-.07c0-5.03,3.15-8.7,7.81-8.7h.15c1.85.04,3.59.56,4.96,1.74.93.74,1.92,1.92,1.92,3.18,0,.3-.04.56-.15.85-.3.81-2.18.89-4.41.89h-1.52c-1.63,0-3.29,0-4.48.44-1.15.44-1.92,1.22-1.92,2.52ZM52.41,38.44c3.07-1.07,8.33.59,8.44-2.55,0-.59-.19-1.3-.48-1.7-.74-1.41-2.52-2.18-4.41-2.18-2.78,0-5.81,1.81-5.92,6.26,0,.67.15,2.29.26,2.92.07-1.59,1.04-2.37,2.11-2.74Z"/>
  <path d="M89.44,32.45h3.61c.17,0,.31-.14.31-.31v-.32c0-.17-.14-.31-.31-.31h-3.61v-2.7c0-.17-.14-.31-.32-.31h-.25c-.15,0-.28.11-.31.26-.23,1.37-.96,2.25-2.13,2.61-.34.06-.72.09-1.08.09h-.42c-.17,0-.31.14-.31.31v.37c0,.17.14.31.31.31h.23c1.22,0,1.31.37,1.31.8,0,2.08.02,4.15.03,6.23,0,1.88.02,3.78.02,5.72v.57c0,1.4.96,2.61,2.5,3.1.52.19,1.13.28,1.88.28.88-.02,1.68-.2,2.36-.54,0-.02.02-.02.02-.02.35-.25.69-.49,1.05-.74.26-.26.48-.56.63-.88.05-.12.02-.28-.08-.37l-.26-.22c-.06-.05-.14-.08-.2-.08h-.08c-.09.03-.17.11-.22.19-.32.82-1.14,1.37-2.1,1.37-2.13-.09-2.51-1.14-2.59-3.44M90.91,48.84c-.66,0-1.26-.08-1.79-.26-1.36-.45-2.28-1.48-2.28-2.81v-.79c0-3.92-.05-7.82-.05-11.74,0-.85-.56-1.11-1.62-1.11h-.23v-.37h.42c.37,0,.77-.03,1.14-.11,1.48-.45,2.14-1.56,2.38-2.85h.25v3.01h3.93v.32h-3.93v12.29c.08,2.16.42,3.64,2.9,3.75h.08c1.03,0,1.96-.63,2.33-1.56l.26.22c-.52,1.11-1.9,1.96-3.78,2.01Z"/>
  <path d="M94.69,46.84c-.52,1.11-1.9,1.96-3.78,2.01-.66,0-1.26-.08-1.79-.26-1.36-.45-2.28-1.48-2.28-2.81v-.79c0-3.92-.05-7.82-.05-11.74,0-.85-.56-1.11-1.62-1.11h-.23v-.37h.42c.37,0,.77-.03,1.14-.11,1.48-.45,2.14-1.56,2.38-2.85h.25v3.01h3.93v.32h-3.93v12.29c.08,2.16.42,3.64,2.9,3.75h.08c1.03,0,1.96-.63,2.33-1.56l.26.22Z"/>
  <path d="M97.77,35.09s-.05.02-.06.02-.05,0-.06-.02t-.02-.02h.05l.09.02Z"/>
  <path d="M97.73,34.76s-.02.02-.02.03c-.03,0-.05-.02-.06-.05l.08.02Z"/>
  <path d="M111.28,47.47v.31h-.26c-.74,0-1.37.14-1.9.32-.51.23-.93.52-1.17.79h-.37c-.37-.22-.62-.88-.74-1.94-.02-.15-.02-.32-.03-.49-.02-.06-.02-.14-.02-.2v-.77c-1.03,1.96-3.04,3.41-5.51,3.44-1.13,0-2.16-.19-3.01-.56-.8-.35-1.45-.89-1.88-1.59-.08-.11-.14-.22-.2-.34-.23-.48-.35-1.02-.35-1.59v-.08c.03-1.7.96-3.18,2.44-3.99,1.82-.99,4.92-1.05,6.83-2.11h.02l.02-.02c.63-.35,1.14-.83,1.42-1.5.15-.35.23-.79.23-1.26,0-2.59-1.33-3.78-3.89-3.78h-.19c-.08,0-.17,0-.25.02-.19,0-.37.02-.56.05-1.7.23-3.27,1.17-4.2,2.59l-.08-.02h-.02s-.06-.03-.08-.05c-.12-.08-.19-.22-.22-.37l-.02-.15c1.19-1.43,3.02-2.14,4.89-2.33.19-.03.37-.05.56-.05.14-.02.26-.02.4-.02,1.3,0,2.59.22,3.62.69.22.12.45.23.66.37.72.48,1.16.99,1.42,1.67.05.12.09.26.14.42.02.06.03.12.05.19.03.19.03.37.03.56,0,2.28-2.1,3.1-4.1,3.66-.25.06-.49.12-.72.2-.15.03-.29.08-.43.11-4.33,1.33-5.77,3.36-5.77,5.18v.22c0,.14.02.28.05.4.28,2.04,1.76,3.04,3.47,3.04.22,0,.4,0,.62-.03,1.9-.26,4.67-2.45,4.67-4.52,0-.45-.11-.85-.37-1.26,1.51-.51,2.41-1.17,2.62-2.55v5.29c0,1.82.68,2.07,2.16,2.07Z"/>
  <path d="M97.73,34.76s-.02.02-.02.03c-.03,0-.05-.02-.06-.05l.08.02Z"/>
  <path d="M125.92,32.59l-1.7,2.08c-.34-.93-1.74-1.74-3.08-1.74-.48,0-.96.11-1.36.37-.93.59-1.48,1.06-1.97,1.74-.29.32-.51.74-.8,1.22v9.84c.03,1.16.66,2.27,1.91,2.3v.29h-6.22v-.29c1.34-.03,1.93-1.22,1.96-2.41v-11.32c0-1.48-.48-1.93-1.96-1.97v-.29c1.16,0,2.38-.11,3.3-.82h.32c.56.71.63,1.37.68,2.16v2.07c.59-1.45,4.03-4.23,6.69-4.23.85,0,1.63.31,2.22,1Z"/>
  <path d="M83.07,47.02c0,.14,0,.29-.02.43.02.15,0,.29-.02.45,0,.05-.02.09-.02.14-.46,3.1-3.39,5.58-8.87,5.69h-.51c-.31,0-.6-.02-.89-.03-.23-.02-.46-.05-.68-.06h-.03c-.57-.08-1.11-.19-1.62-.29-1.13-.31-2.08-.69-2.73-.89-.11-.05-.2.03-.22.14l-.32,2.93c-.02.06-.11.06-.11,0l-.37-3.18c-.03-.29-.26-.52-.56-.56l-.66-.08-2.51-.29c-.06,0-.06-.09,0-.11l2.51-.28.66-.08c.29-.03.52-.28.56-.57l.11-.97.26-2.19c0-.06.09-.06.11,0l.34,3.02c.05.37.34.68.72.72l3.02.34c.06.02.06.11,0,.11l-2.75.32c1.05.85,2.5,1.36,4.43,1.45.23.03.48.03.72.03h.45c2.68-.03,4.53-1.03,5.18-3.05.05-.15.09-.32.12-.49.08-.35.11-.72.12-1.13v-.12c0-3.38-2.5-5.31-5.2-7.11-3.73-2.38-8.13-4.4-8.13-9.04v-.17c.11-3.95,3.89-5.07,7.79-5.07,2.04,0,4.01.4,5.37,1.02.39.17.72.22,1,.22.74,0,1.02-.45,1.08-1.3h.51v7.4h-.51c-.23-3.67-2.88-6.89-7.28-6.89h-.11c-2.78.06-3.9,1.93-3.9,4.07v.56c.23,3.16,3.95,5.09,7.28,7.3,2.93,1.97,5.65,4.16,5.65,7.62Z"/>
  <path d="M97.73,34.76s-.02.02-.02.03c-.03,0-.05-.02-.06-.05l.08.02Z"/>
  <path d="M97.77,35.09s-.05.02-.06.02-.05,0-.06-.02t-.02-.02h.05l.09.02Z"/>
  <path d="M99.58,35.41l-.32.05-.65.08-1.16.15s-.06.02-.09.03c-.06.02-.11.05-.14.08-.09.06-.14.17-.15.28l-.14,1.02-.08.59-.06.52c0,.06-.09.06-.09,0l-.05-.34-.06-.48-.17-1.31c-.02-.2-.19-.35-.39-.39l-2.13-.28s-.05-.08,0-.09l2.13-.28c.2-.02.37-.17.39-.37l.28-2.13c0-.06.09-.06.09,0l.25,1.87.03.26c.02.11.06.22.15.28.06.05.12.09.22.09h.02l.14.02h.02l.03.02s0,.02.02.02c.02.02.05.02.06.02s.05,0,.06-.02l1.16.15.48.06.17.02s.05.09,0,.09Z"/>
  <path d="M97.77,35.09s-.05.02-.06.02-.05,0-.06-.02t-.02-.02h.05l.09.02Z"/>
  <path d="M25.42,33.84l-1.3.17-.63.08h-.02l-.19.03s-.06.02-.09.03c-.06.02-.11.05-.14.08-.09.06-.14.17-.15.28l-.02.12-.08.59-.19,1.42c0,.06-.09.06-.09,0l-.14-1.03-.06-.45-.08-.65c-.02-.2-.19-.35-.39-.39l-2.13-.28s-.05-.08,0-.09l2.13-.28c.2-.02.37-.17.39-.37l.28-2.08v-.05c0-.06.09-.06.09,0v.05l.28,2.08c.02.11.06.22.15.28.06.05.14.09.23.09l.23.03.52.08h.02l.46.06h.02l.88.11s.05.09,0,.09Z"/>
  <g>
    <g>
      <path d="M28.38,38.99c-.14.06-.28.12-.4.19-.02,0-.02.02-.02.02-.37.34-.74.68-1.08,1.02-.11.22-.19.43-.2.68.71-.69,1.43-1.37,2.19-2.05-.17.05-.34.09-.49.15ZM20.28,48.13c-.23.14-.46.26-.69.37-4.07,5.71-5.98,11.18-5.14,15.79.12.06.26.11.4.14-.96-4.72,1.06-10.4,5.43-16.3ZM28.38,38.99c-.14.06-.28.12-.4.19-.02,0-.02.02-.02.02-.37.34-.74.68-1.08,1.02-.11.22-.19.43-.2.68.71-.69,1.43-1.37,2.19-2.05-.17.05-.34.09-.49.15ZM106.52,46.72c-.35.31-.71.63-1.06.93-7.39,6.4-16.81,12.34-27.3,17.2-27.69,12.82-54.69,14.11-61.74,3.3-.15-.2-.28-.4-.37-.6-.15-.25-.28-.49-.4-.76-.29-.62-.52-1.28-.68-1.94-.03-.14-.06-.26-.11-.4-.96-4.72,1.06-10.4,5.43-16.3-.23.14-.46.26-.69.37-4.07,5.71-5.98,11.18-5.14,15.79.02.14.05.28.09.42.15.77.42,1.51.74,2.24.03.08.08.15.11.22h.02c.09.22.2.42.32.62,3.04,5.35,10.63,8.01,20.68,8.01,11.68,0,26.68-3.56,41.91-10.6,10.94-5.06,20.71-11.31,28.26-18-.03-.15-.05-.31-.06-.48ZM29.04,38.22l-.02.02c.08-.02.15-.03.23-.05-.08,0-.15.02-.22.03ZM28.38,38.99c-.14.06-.28.12-.4.19-.02,0-.02.02-.02.02-.37.34-.74.68-1.08,1.02-.11.22-.19.43-.2.68.71-.69,1.43-1.37,2.19-2.05-.17.05-.34.09-.49.15ZM35.01,33.33c-1.97,1.48-3.83,2.99-5.55,4.5.22-.03.42-.05.63-.06h.02l.02-.02c1.62-1.43,3.33-2.81,5.18-4.18-.08-.09-.19-.17-.29-.25ZM26.07,40.99c.02.08.02.14.03.19,0-.08.02-.17.03-.25-.02.02-.05.05-.06.06ZM24.02,43.12c-.62.65-1.2,1.31-1.74,1.96.06-.06.14-.09.23-.09.03,0,.08,0,.11.02.05.02.08.05.11.08.45-.52.93-1.05,1.4-1.57-.05-.12-.08-.26-.11-.39ZM36.2,32.43c.11.06.22.14.32.22,1.79-1.3,3.66-2.58,5.61-3.83v-.43c-2.07,1.31-4.06,2.67-5.94,4.04ZM120.46,18.29c-1.05-2.3-2.87-4.16-5.37-5.58-.23-.14-.46-.26-.71-.4-.93-.46-1.93-.88-3.01-1.23-.14-.05-.28-.09-.43-.12-3.64-1.14-8.13-1.67-13.34-1.51-11.88.35-26.14,4.12-40.16,10.61-4.36,2.02-8.48,4.21-12.34,6.52v.42c3.89-2.33,8.08-4.55,12.49-6.6,13.97-6.46,28.2-10.21,40.03-10.57.6-.02,1.19-.03,1.77-.03,4.52,0,8.44.52,11.66,1.57v.02c.14.02.28.06.42.12.48.15.94.32,1.37.51.69.29,1.34.6,1.96.97.22.11.43.23.63.37,2.16,1.33,3.75,3.04,4.69,5.09,2.01,4.33,1,9.86-2.81,15.95v.39c.19-.22.4-.45.65-.68v-.02c2.34-3.92,3.55-7.57,3.55-10.86,0-1.77-.34-3.42-1.05-4.94ZM112.12,41.18c-.85.94-1.74,1.87-2.68,2.79v.56c1.05-1.02,2.04-2.05,2.98-3.08.69-.77,1.34-1.53,1.94-2.28v-.62c-.69.88-1.43,1.76-2.24,2.64ZM28.38,38.99c-.14.06-.28.12-.4.19-.02,0-.02.02-.02.02-.37.34-.74.68-1.08,1.02-.11.22-.19.43-.2.68.71-.69,1.43-1.37,2.19-2.05-.17.05-.34.09-.49.15ZM20.28,48.13c-.23.14-.46.26-.69.37-4.07,5.71-5.98,11.18-5.14,15.79.12.06.26.11.4.14-.96-4.72,1.06-10.4,5.43-16.3ZM28.38,38.99c-.14.06-.28.12-.4.19-.02,0-.02.02-.02.02-.37.34-.74.68-1.08,1.02-.11.22-.19.43-.2.68.71-.69,1.43-1.37,2.19-2.05-.17.05-.34.09-.49.15Z"/>
      <path d="M22.61,30.61c-.02.12-.05.14-.08.02,0-.03-.02-.09-.03-.15-.23-1.3-.68-2.25-1.22-2.99-.08-.11-.15-.2-.23-.29-.79-.94-1.76-1.54-2.7-2.14-1.7-1.16-3.73-1.79-6-1.79-3.04,0-5.37,1.05-7.03,3.08-1.67,1.99-2.51,4.77-2.51,8.28,0,2.67.45,5.15,1.4,7.33.54,1.25,1.2,2.34,1.97,3.29.08.11.17.2.25.31.54.62,1.13,1.16,1.77,1.63,1.06.77,2.21,1.33,3.42,1.63.12.03.23.05.35.08.66.14,1.36.22,2.08.22,1.96,0,3.7-.37,5.4-1.34.51-.29.97-.6,1.39-.96,0-.02.02-.02.03-.03.62-.46,1.13-.94,1.62-1.48v.96c-.56.48-1.14.91-1.79,1.31-.23.14-.48.28-.72.4h-.02c-1.85.97-4.04,1.56-6.54,1.57h-.29c-.48,0-.96-.02-1.43-.06-.12-.02-.25-.03-.37-.05-2.1-.25-4.01-.91-5.63-1.96-.09-.06-.2-.12-.31-.2-3.33-2.27-5.4-6.12-5.4-10.94v-.08c.03-7.7,5.24-13.37,13.14-13.37h.29c2.3.05,4.33.45,6,1.19.59.26,1.11.45,1.59.45.63,0,1.11-.37,1.14-1.45h.34s.05,1.31.09,2.85c0,.15.02.31.02.46.05,1.8.08,3.78,0,4.23Z"/>
    </g>
    <path d="M73.48,52.92h.83s.02,0,.02-.02c1.54-.79,3.04-1.62,4.52-2.47.08-.17.14-.34.19-.54-1.8,1.03-3.66,2.05-5.55,3.02ZM73.48,52.92h.83s.02,0,.02-.02c1.54-.79,3.04-1.62,4.52-2.47.08-.17.14-.34.19-.54-1.8,1.03-3.66,2.05-5.55,3.02ZM96.31,37.63c-2.13,1.9-4.41,3.73-6.86,5.52v.45c2.47-1.77,4.78-3.61,6.93-5.49l-.06-.48ZM98.22,35.9c-.31.31-.63.6-.96.89l-.08.57c.57-.49,1.14-1.02,1.68-1.56l-.65.09ZM101.58,32.54c-.76.82-1.54,1.62-2.38,2.42l.4.05s.05.02.06.03c.88-.85,1.71-1.71,2.5-2.59-.2.02-.4.05-.59.09ZM111.47,11.5c-.03-.15-.06-.29-.09-.43-.17-.76-.42-1.5-.74-2.19-.03-.06-.06-.14-.11-.2v-.02c-.09-.22-.2-.42-.34-.62C107.06,2.53,99.15-.31,87.78.03c-11.89.35-26.16,4.12-40.18,10.61-9.49,4.38-17.88,9.59-24.69,15.05v.45c6.82-5.48,15.29-10.72,24.85-15.15C61.74,4.52,75.95.77,87.78.41c.62-.02,1.2-.02,1.79-.02,5.4,0,9.93.76,13.43,2.22,2.92,1.2,5.12,2.9,6.51,5.06.15.2.28.4.39.62.14.25.26.49.39.74.28.62.51,1.25.66,1.91.05.14.08.26.11.42v.02c1.14,5.55-1.8,12.59-8.53,20.13.19-.02.37-.02.52-.03,5.69-6.45,8.64-12.54,8.64-17.68,0-.79-.08-1.56-.22-2.3ZM83.38,47.26c0,.15,0,.31-.03.45,1.08-.66,2.14-1.36,3.18-2.05v-.45c-1.02.69-2.07,1.39-3.15,2.05ZM71.6,53.87h-.02c-1.08.52-2.16,1.05-3.25,1.56-21.04,9.73-41.66,12.83-53.48,9.01-.14-.03-.28-.08-.4-.14-1.22-.4-2.33-.89-3.33-1.47-.23-.12-.45-.25-.65-.39-2.13-1.31-3.72-3.01-4.67-5.07-1.3-2.81-1.31-6.06-.22-9.56-.11-.08-.2-.14-.31-.2-1.17,3.64-1.17,7.02.17,9.93,1.06,2.3,2.88,4.13,5.35,5.54h.02c.23.14.46.26.69.39.94.48,1.94.89,3.04,1.25.14.06.28.09.42.12,3.29,1.03,7.22,1.54,11.63,1.54,11.66,0,26.68-3.56,41.89-10.6,1.26-.59,2.53-1.2,3.76-1.84-.22-.02-.43-.05-.65-.08ZM20.81,27.39c-6.91,5.88-11.94,11.94-14.48,17.54.08.09.15.2.25.29,2.5-5.58,7.54-11.66,14.47-17.52-.08-.11-.15-.22-.23-.31Z"/>
    <g>
      <path d="M23.71,34.38l-.37.05-.28.05-.05.05.2.03-.05.32c.17-.17.35-.34.54-.49ZM23.71,34.38l-.37.05-.28.05-.05.05.2.03-.05.32c.17-.17.35-.34.54-.49ZM23.71,34.38l-.37.05-.28.05-.05.05.2.03-.05.32c.17-.17.35-.34.54-.49ZM115.56,13.59c-.03-.08-.08-.15-.12-.23-.09-.23-.22-.43-.34-.65-1.1-1.9-2.76-3.45-4.9-4.66-.22-.14-.45-.26-.68-.37-11.14-5.71-33.84-3.05-56.99,7.67-3.58,1.65-7,3.42-10.24,5.29.05,0,.09-.02.14-.02.42-.08.79-.15,1.1-.26.02,0,.03,0,.05-.02,2.9-1.62,5.95-3.18,9.12-4.64,15.21-7.03,30.18-10.6,41.78-10.6,5.2,0,9.72.71,13.26,2.14.77.31,1.5.66,2.17,1.05.22.12.43.25.63.37v.02c1.6.99,2.92,2.21,3.86,3.62.15.22.29.45.42.68.15.25.28.49.4.76,2.58,5.57.09,12.91-6.09,20.5.06.12.11.25.15.39,4.7-5.74,7.33-11.34,7.33-16.18,0-1.73-.34-3.35-1.03-4.86ZM40.49,21.68c-6.15,3.64-11.6,7.6-16.15,11.63l.48.06h.02c4.58-4.03,10.07-7.97,16.26-11.61-.17-.05-.37-.08-.6-.08ZM104.28,39.84l-.37.09s-.08.02-.11.03l-.02.02c-1.67,1.6-3.46,3.19-5.41,4.77v.29c0,.06,0,.11.02.17,2.24-1.79,4.3-3.61,6.17-5.44-.09.03-.19.06-.28.08ZM16.04,67.54c-.22-.11-.42-.23-.63-.37h-.02c-1.64-1.02-2.95-2.25-3.89-3.7-.15-.2-.28-.42-.39-.63-.15-.25-.28-.49-.4-.76-1.63-3.52-1.23-7.74.83-12.29-.12-.02-.25-.03-.37-.05-2.08,4.63-2.47,8.93-.82,12.51.03.06.06.14.11.2.09.22.2.43.32.63h.02c1.08,1.93,2.76,3.49,4.92,4.7.22.14.45.26.68.35-.15-.2-.28-.4-.37-.6ZM22.06,35.41c-4.63,4.41-8.13,8.88-10.29,13.11.12.03.25.06.37.08,2.1-4.1,5.51-8.44,9.98-12.74l-.06-.45ZM23.71,34.38l-.37.05-.28.05-.05.05.2.03-.05.32c.17-.17.35-.34.54-.49ZM23.71,34.38l-.37.05-.28.05-.05.05.2.03-.05.32c.17-.17.35-.34.54-.49ZM23.71,34.38l-.37.05-.28.05-.05.05.2.03-.05.32c.17-.17.35-.34.54-.49Z"/>
      <path d="M46.7,48.47v.29h-6.22v-.29c1.34,0,1.93-1.22,1.96-2.41v-22.84c-.02-.85-.37-1.42-1-1.67h-.02c-.14-.08-.31-.12-.49-.15h-.02c-.14-.02-.28-.03-.43-.03v-.34c.42,0,.79-.02,1.14-.03,0-.02.02-.02.02-.02.28,0,.54-.03.8-.06.03,0,.08-.02.11-.02,0-.02.02-.02.02-.02.83-.12,1.45-.35,1.88-.63h.34v25.91c.03,1.16.66,2.3,1.91,2.3Z"/>
      <path d="M96.17,46.96c-6.45,4.89-14.16,9.55-22.77,13.53-15.21,7.03-30.23,10.6-41.89,10.6-6.09,0-11.28-.97-15.1-2.95-.15-.2-.28-.4-.37-.6,10.77,6.05,33.73,3.45,57.19-7.4,7.43-3.44,14.19-7.37,20.04-11.52,0-.02.02-.02.02-.02.35-.25.69-.49,1.05-.74.56-.4,1.1-.82,1.63-1.23.05.12.11.23.2.34Z"/>
    </g>
  </g>
</svg>