<svg width="221" height="97" viewBox="0 0 221 97" fill="none" xmlns="http://www.w3.org/2000/svg">
<path fill-rule="evenodd" clip-rule="evenodd" d="M217.304 55.318C221.822 51.7453 221.822 45.2353 217.304 41.6626C200.41 28.3032 158.889 0 110.346 0C61.8037 0 20.283 28.3032 3.38855 41.6626C-1.12952 45.2353 -1.12951 51.7453 3.38855 55.318C20.283 68.6774 61.8037 96.9806 110.346 96.9806C158.889 96.9806 200.41 68.6774 217.304 55.318ZM116.665 21.6166C113.108 18.9487 108.218 18.9487 104.662 21.6166L95.7603 28.2951L86.658 34.6973C83.0218 37.2549 81.5106 41.906 82.949 46.1124L86.5498 56.6422L89.826 67.2774C91.1347 71.526 95.0911 74.4005 99.5362 74.3323L110.663 74.1616L121.79 74.3323C126.235 74.4005 130.192 71.526 131.501 67.2774L134.777 56.6422L138.378 46.1124C139.816 41.9059 138.305 37.2549 134.669 34.6973L125.566 28.2951L116.665 21.6166Z" fill="#EDD1CC"/>
<path d="M105.74 38.8468C106.991 34.999 112.434 34.999 113.684 38.8468C114.244 40.5676 115.847 41.7326 117.656 41.7326C121.702 41.7326 123.384 46.9098 120.111 49.2879C118.648 50.3514 118.035 52.2365 118.594 53.9573C119.844 57.8051 115.44 61.0048 112.167 58.6267C110.703 57.5632 108.721 57.5632 107.258 58.6267C103.984 61.0048 99.5804 57.8051 100.831 53.9573C101.39 52.2365 100.777 50.3514 99.3135 49.2879C96.0403 46.9098 97.7225 41.7326 101.768 41.7326C103.578 41.7326 105.181 40.5676 105.74 38.8468Z" fill="#D8A273"/>
</svg>
