<svg width="196" height="165" viewBox="0 0 196 165" fill="none" xmlns="http://www.w3.org/2000/svg">
<path d="M3 3C32.0278 57.3329 110.667 133.399 193 3" stroke="#A56037" stroke-width="5" stroke-linecap="round"/>
<path d="M53.1203 74.1772L70.1084 76.3121C70.6536 76.3806 70.7595 77.1083 70.247 77.2646L41.2648 86.1038C40.7523 86.2601 40.3394 85.626 40.7244 85.2738L52.7184 74.2998C52.8239 74.2032 52.9708 74.1584 53.1203 74.1772Z" fill="#EDD1CC" stroke="#A56037"/>
<path d="M71.1108 97.3903L95.1899 113.183C95.5495 113.419 95.4903 113.936 95.0903 114.053L62.0588 123.744C61.6588 123.861 61.2693 123.476 61.4029 123.096L70.3553 97.6119C70.4594 97.3155 70.8307 97.2066 71.1108 97.3903Z" fill="#EDD1CC" stroke="#A56037"/>
<path d="M87.1494 144.871L63.1947 128.929C62.8369 128.69 62.8998 128.174 63.3006 128.059L96.4064 118.575C96.8073 118.46 97.1938 118.848 97.0571 119.228L87.906 144.655C87.7996 144.95 87.4279 145.057 87.1494 144.871Z" fill="#EDD1CC" stroke="#A56037"/>
<path d="M52.2125 125.355L52.225 138.448C52.2254 138.92 51.5531 139.079 51.2674 138.673L38.0554 119.93C37.7697 119.524 38.2191 119.05 38.6955 119.254L51.895 124.905C52.0874 124.987 52.2123 125.164 52.2125 125.355Z" fill="#EDD1CC" stroke="#A56037"/>
<path d="M93.9586 163.7L80.6486 158.143C80.3148 158.003 80.2588 157.567 80.5437 157.324L89.8607 149.385C90.1427 149.145 90.5721 149.254 90.672 149.592L94.665 163.089C94.784 163.491 94.3523 163.864 93.9586 163.7Z" fill="#EDD1CC" stroke="#A56037"/>
<path d="M33.3271 112.255L35.7754 94.3152C35.8377 93.8587 36.4972 93.7707 36.7421 94.1863L52.222 120.452C52.4668 120.867 52.0132 121.304 51.557 121.092L33.6289 112.767C33.4212 112.67 33.2988 112.463 33.3271 112.255Z" fill="#EDD1CC" stroke="#A56037"/>
<path d="M39.5852 90.6836L72.2085 80.7412C72.6186 80.6162 72.9757 80.9855 72.8131 81.3664L57.1002 118.178C56.9376 118.559 56.3963 118.621 56.1837 118.283L39.2733 91.4142C39.1042 91.1455 39.2589 90.783 39.5852 90.6836Z" fill="#EDD1CC" stroke="#A56037"/>
<path d="M78.6104 80.8792L93.4161 95.04C93.5099 95.1297 93.5623 95.2478 93.5623 95.3696L93.5623 106.099C93.5623 106.488 93.0672 106.701 92.7204 106.461L72.7075 92.5832C72.5146 92.4495 72.445 92.2168 72.5386 92.0189L77.7458 81.0064C77.8926 80.6959 78.3486 80.6288 78.6104 80.8792Z" fill="#EDD1CC" stroke="#A56037"/>
<path d="M75.2033 155.129L57.413 143.551C57.2762 143.462 57.1952 143.32 57.1952 143.169L57.1952 129.985C57.1952 129.588 57.7107 129.37 58.0549 129.622L82.8214 147.725C83.0581 147.898 83.082 148.214 82.8735 148.413L75.8974 155.071C75.7159 155.244 75.4184 155.269 75.2033 155.129Z" fill="#EDD1CC" stroke="#A56037"/>
<path d="M143.067 74.1772L126.079 76.3121C125.534 76.3806 125.428 77.1083 125.941 77.2646L154.923 86.1038C155.435 86.2601 155.848 85.626 155.463 85.2738L143.469 74.2998C143.364 74.2032 143.217 74.1584 143.067 74.1772Z" fill="#EDD1CC" stroke="#A56037"/>
<path d="M125.077 97.3903L100.998 113.183C100.638 113.419 100.697 113.936 101.097 114.053L134.129 123.744C134.529 123.861 134.918 123.476 134.785 123.096L125.832 97.6119C125.728 97.3155 125.357 97.2066 125.077 97.3903Z" fill="#EDD1CC" stroke="#A56037"/>
<path d="M109.038 144.871L132.993 128.929C133.351 128.69 133.288 128.174 132.887 128.059L99.7811 118.575C99.3802 118.46 98.9937 118.848 99.1304 119.228L108.281 144.655C108.388 144.95 108.76 145.057 109.038 144.871Z" fill="#EDD1CC" stroke="#A56037"/>
<path d="M143.975 125.355L143.963 138.448C143.962 138.92 144.635 139.079 144.92 138.673L158.132 119.93C158.418 119.524 157.969 119.05 157.492 119.254L144.293 124.905C144.1 124.987 143.975 125.164 143.975 125.355Z" fill="#EDD1CC" stroke="#A56037"/>
<path d="M102.229 163.7L115.539 158.143C115.873 158.003 115.929 157.567 115.644 157.324L106.327 149.385C106.045 149.145 105.615 149.254 105.516 149.592L101.523 163.089C101.404 163.491 101.835 163.864 102.229 163.7Z" fill="#EDD1CC" stroke="#A56037"/>
<path d="M162.86 112.255L160.412 94.3152C160.35 93.8587 159.69 93.7707 159.445 94.1863L143.966 120.452C143.721 120.867 144.174 121.304 144.631 121.092L162.559 112.767C162.766 112.67 162.889 112.463 162.86 112.255Z" fill="#EDD1CC" stroke="#A56037"/>
<path d="M156.602 90.6836L123.979 80.7412C123.569 80.6162 123.212 80.9855 123.374 81.3664L139.087 118.178C139.25 118.559 139.791 118.621 140.004 118.283L156.914 91.4142C157.083 91.1455 156.929 90.783 156.602 90.6836Z" fill="#EDD1CC" stroke="#A56037"/>
<path d="M117.577 80.8792L102.771 95.04C102.678 95.1297 102.625 95.2478 102.625 95.3696L102.625 106.099C102.625 106.488 103.12 106.701 103.467 106.461L123.48 92.5832C123.673 92.4495 123.743 92.2168 123.649 92.0189L118.442 81.0064C118.295 80.6959 117.839 80.6288 117.577 80.8792Z" fill="#EDD1CC" stroke="#A56037"/>
<path d="M120.984 155.129L138.775 143.551C138.911 143.462 138.992 143.32 138.992 143.169L138.992 129.985C138.992 129.588 138.477 129.37 138.133 129.622L113.366 147.725C113.129 147.898 113.106 148.214 113.314 148.413L120.29 155.071C120.472 155.244 120.769 155.269 120.984 155.129Z" fill="#EDD1CC" stroke="#A56037"/>
<path d="M99.012 133.156L103.734 143.289C103.889 143.62 103.647 144 103.281 144H93.8367C93.471 144 93.229 143.62 93.3835 143.289L98.1056 133.156C98.2851 132.771 98.8326 132.771 99.012 133.156Z" fill="#EDD1CC" stroke="#A56037"/>
<path d="M98.1056 158.844L93.3835 148.711C93.229 148.38 93.471 148 93.8367 148L103.281 148C103.647 148 103.889 148.38 103.734 148.711L99.012 158.844C98.8326 159.229 98.2851 159.229 98.1056 158.844Z" fill="#EDD1CC" stroke="#A56037"/>
<rect x="93.5294" y="69" width="8.94118" height="17" rx="4.47059" fill="#580201"/>
</svg>
