<svg width="120" height="162" viewBox="0 0 120 162" fill="none" xmlns="http://www.w3.org/2000/svg">
<path fill-rule="evenodd" clip-rule="evenodd" d="M60 162C93.1371 162 120 135.544 120 102.91C120 70.2751 93.1371 43.8196 60 43.8196C26.8629 43.8196 0 70.2751 0 102.91C0 135.544 26.8629 162 60 162ZM60 150.049C86.4352 150.049 107.865 128.944 107.865 102.91C107.865 76.8754 86.4352 55.7704 60 55.7704C33.5648 55.7704 12.1348 76.8754 12.1348 102.91C12.1348 128.944 33.5648 150.049 60 150.049Z" fill="#D8A273"/>
<path d="M33.9724 5.48243C34.1726 5.22637 34.5601 5.22637 34.7602 5.48243L50.4687 25.5757C50.7253 25.9039 50.4914 26.3836 50.0747 26.3836H18.6579C18.2413 26.3836 18.0074 25.9039 18.264 25.5757L33.9724 5.48243Z" fill="#EDD1CC" stroke="#BF8579"/>
<path d="M52.6975 61.088C52.912 61.5697 52.3312 62.0124 51.9235 61.6779L16.3373 32.477C15.9744 32.1792 16.185 31.5905 16.6545 31.5905L39.2381 31.5905C39.4355 31.5905 39.6145 31.7067 39.6948 31.8871L52.6975 61.088Z" fill="#EDD1CC" stroke="#BF8579"/>
<path d="M67.3025 61.088C67.088 61.5697 67.6688 62.0124 68.0764 61.6779L103.663 32.477C104.026 32.1792 103.815 31.5905 103.345 31.5905L80.7619 31.5905C80.5644 31.5905 80.3855 31.7067 80.3051 31.8871L67.3025 61.088Z" fill="#EDD1CC" stroke="#BF8579"/>
<path d="M59.5452 62.5471C59.7233 62.9367 60.2767 62.9367 60.4548 62.5471L74.2785 32.2983C74.4298 31.9672 74.1878 31.5905 73.8237 31.5905L46.1763 31.5905C45.8122 31.5905 45.5702 31.9672 45.7215 32.2983L59.5452 62.5471Z" fill="#EDD1CC" stroke="#BF8579"/>
<path d="M85.2397 5.48243C85.4399 5.22637 85.8274 5.22637 86.0275 5.48243L101.736 25.5757C101.993 25.9039 101.759 26.3836 101.342 26.3836H69.9252C69.5086 26.3836 69.2747 25.9039 69.5313 25.5757L85.2397 5.48243Z" fill="#EDD1CC" stroke="#BF8579"/>
<path d="M60.3755 26.5411C60.1764 26.7675 59.8237 26.7675 59.6246 26.5411L39.6364 3.81435C39.3523 3.49133 39.5817 2.98414 40.0119 2.98414L79.9882 2.98414C80.4184 2.98414 80.6477 3.49133 80.3636 3.81435L60.3755 26.5411Z" fill="#EDD1CC" stroke="#BF8579"/>
</svg>
